<?xml version="1.0" standalone="no"?>
<!DOCTYPE svg PUBLIC "-//W3C//DTD SVG 20010904//EN"
 "http://www.w3.org/TR/2001/REC-SVG-20010904/DTD/svg10.dtd">
<svg version="1.0" xmlns="http://www.w3.org/2000/svg"
 width="980.000000pt" height="980.000000pt" viewBox="0 0 980.000000 980.000000"
 preserveAspectRatio="xMidYMid meet">

<g transform="translate(0.000000,980.000000) scale(0.100000,-0.100000)"
fill="#000000" stroke="none">
<path d="M5844 8361 c-136 -37 -259 -113 -380 -236 -155 -158 -264 -362 -344
-645 -88 -313 -100 -615 -35 -937 78 -386 271 -658 547 -771 84 -34 251 -43
348 -18 246 63 464 263 614 561 122 245 173 443 196 764 21 293 -35 611 -145
832 -114 227 -257 367 -443 437 -93 35 -256 41 -358 13z"/>
<path d="M3325 8237 c-307 -79 -529 -376 -602 -807 -22 -132 -22 -440 1 -575
67 -396 230 -746 449 -965 193 -193 380 -283 582 -282 297 3 530 188 665 531
214 545 74 1315 -325 1785 -105 124 -275 243 -415 292 -91 31 -272 42 -355 21z"/>
<path d="M7685 6581 c-159 -39 -320 -144 -501 -325 -186 -187 -304 -382 -389
-641 -67 -204 -80 -276 -79 -455 1 -126 5 -170 22 -234 37 -135 85 -221 171
-306 111 -110 230 -160 380 -160 236 0 450 108 692 350 138 137 224 257 303
420 81 165 153 421 172 602 8 82 -19 279 -52 378 -64 190 -205 329 -379 375
-80 20 -250 19 -340 -4z"/>
<path d="M1910 6073 c-304 -38 -507 -247 -560 -576 -58 -357 124 -834 445
-1166 184 -191 418 -341 610 -391 520 -135 910 216 857 773 -40 419 -260 813
-612 1096 -211 170 -403 250 -630 264 -41 3 -91 3 -110 0z"/>
<path d="M4806 5780 c-185 -30 -418 -112 -551 -195 -147 -93 -234 -181 -355
-360 -81 -119 -106 -180 -220 -518 -203 -604 -226 -642 -707 -1127 -396 -401
-451 -467 -538 -654 -61 -131 -80 -216 -79 -361 0 -141 27 -256 94 -400 82
-178 257 -405 413 -536 87 -73 242 -151 352 -178 255 -63 616 -19 1019 124 47
17 77 34 81 45 3 10 -6 158 -20 329 -39 490 -34 581 48 751 50 105 53 157 14
315 -58 239 -79 493 -57 720 6 72 15 247 20 390 7 208 13 275 28 333 21 76 44
119 67 128 18 7 64 -18 95 -51 14 -15 57 -51 95 -80 71 -53 135 -118 209 -209
21 -27 53 -54 70 -61 39 -15 387 -12 431 5 55 21 101 60 165 141 80 102 179
193 261 242 73 42 98 46 125 16 18 -20 19 -46 25 -388 4 -271 10 -397 24 -486
13 -90 16 -156 12 -265 -6 -152 -11 -176 -77 -364 -27 -75 -31 -100 -28 -160
3 -73 8 -85 136 -345 31 -63 144 -181 330 -346 68 -60 161 -150 206 -200 110
-120 349 -415 382 -471 14 -24 28 -44 30 -44 14 0 131 66 209 117 394 260 649
597 769 1013 52 180 61 241 61 410 -1 192 -21 285 -100 445 -66 132 -131 221
-245 334 -136 134 -201 182 -610 446 -338 218 -619 469 -1152 1027 -274 286
-417 385 -653 448 -92 24 -284 35 -379 20z"/>
</g>
</svg>
